<svg width="24" height="24" viewBox="0 0 24 24" fill="none" xmlns="http://www.w3.org/2000/svg">
<path opacity="0.1" fill-rule="evenodd" clip-rule="evenodd" d="M0 12C0 5.37258 5.37258 0 12 0C18.6274 0 24 5.37258 24 12C24 18.6274 18.6274 24 12 24C5.37258 24 0 18.6274 0 12Z" fill="#011230"/>
<path fill-rule="evenodd" clip-rule="evenodd" d="M12.0002 5.59998C10.2621 5.59998 10.0439 5.60758 9.36125 5.63864C8.67991 5.66984 8.21484 5.77771 7.8079 5.93598C7.38696 6.09945 7.02989 6.31812 6.67415 6.67399C6.31815 7.02972 6.09948 7.38679 5.93548 7.8076C5.77681 8.21467 5.66881 8.67987 5.63814 9.36095C5.60761 10.0436 5.59961 10.2619 5.59961 12C5.59961 13.7382 5.60734 13.9557 5.63828 14.6383C5.66961 15.3197 5.77748 15.7847 5.93561 16.1917C6.09921 16.6126 6.31788 16.9697 6.67375 17.3254C7.02936 17.6814 7.38643 17.9006 7.8071 18.0641C8.2143 18.2224 8.67951 18.3302 9.36072 18.3614C10.0434 18.3925 10.2614 18.4001 11.9994 18.4001C13.7377 18.4001 13.9552 18.3925 14.6378 18.3614C15.3192 18.3302 15.7848 18.2224 16.192 18.0641C16.6128 17.9006 16.9693 17.6814 17.3249 17.3254C17.6809 16.9697 17.8996 16.6126 18.0636 16.1918C18.2209 15.7847 18.3289 15.3195 18.3609 14.6385C18.3916 13.9558 18.3996 13.7382 18.3996 12C18.3996 10.2619 18.3916 10.0438 18.3609 9.36108C18.3289 8.67974 18.2209 8.21467 18.0636 7.80773C17.8996 7.38679 17.6809 7.02972 17.3249 6.67399C16.9689 6.31798 16.6129 6.09931 16.1916 5.93598C15.7836 5.77771 15.3182 5.66984 14.6369 5.63864C13.9542 5.60758 13.7369 5.59998 11.9982 5.59998H12.0002ZM11.426 6.7533C11.5964 6.75304 11.7866 6.7533 12.0002 6.7533C13.709 6.7533 13.9115 6.75944 14.5863 6.7901C15.2103 6.81864 15.549 6.9229 15.7746 7.01051C16.0733 7.12651 16.2862 7.26517 16.5101 7.48918C16.7341 7.71318 16.8728 7.92652 16.989 8.22518C17.0766 8.45052 17.181 8.78919 17.2094 9.4132C17.2401 10.0879 17.2468 10.2905 17.2468 11.9986C17.2468 13.7066 17.2401 13.9092 17.2094 14.5839C17.1809 15.2079 17.0766 15.5466 16.989 15.7719C16.873 16.0706 16.7341 16.2833 16.5101 16.5071C16.2861 16.7311 16.0734 16.8698 15.7746 16.9858C15.5493 17.0738 15.2103 17.1778 14.5863 17.2063C13.9117 17.237 13.709 17.2437 12.0002 17.2437C10.2912 17.2437 10.0887 17.237 9.41402 17.2063C8.79002 17.1775 8.45134 17.0733 8.22561 16.9857C7.92694 16.8697 7.7136 16.731 7.4896 16.507C7.2656 16.283 7.12693 16.0702 7.01066 15.7714C6.92306 15.5461 6.81866 15.2074 6.79026 14.5834C6.75959 13.9087 6.75346 13.706 6.75346 11.997C6.75346 10.2879 6.75959 10.0863 6.79026 9.4116C6.81879 8.78759 6.92306 8.44892 7.01066 8.22332C7.12666 7.92465 7.2656 7.71131 7.4896 7.48731C7.7136 7.26331 7.92694 7.12464 8.22561 7.00837C8.45121 6.92037 8.79002 6.81637 9.41402 6.7877C10.0044 6.76104 10.2332 6.75304 11.426 6.7517V6.7533ZM15.4165 7.81598C14.9925 7.81598 14.6485 8.15959 14.6485 8.58372C14.6485 9.00773 14.9925 9.35173 15.4165 9.35173C15.8405 9.35173 16.1845 9.00773 16.1845 8.58372C16.1845 8.15972 15.8405 7.81598 15.4165 7.81598ZM12.0002 8.71332C10.1851 8.71332 8.71352 10.1849 8.71352 12C8.71352 13.8151 10.1851 15.2861 12.0002 15.2861C13.8153 15.2861 15.2864 13.8151 15.2864 12C15.2864 10.1849 13.8153 8.71332 12.0002 8.71332ZM12.0002 9.86667C13.1783 9.86667 14.1336 10.8217 14.1336 12C14.1336 13.1782 13.1783 14.1334 12.0002 14.1334C10.8219 14.1334 9.86684 13.1782 9.86684 12C9.86684 10.8217 10.8219 9.86667 12.0002 9.86667Z" fill="#011230"/>
</svg>
